<?xml version="1.0" encoding="utf-8"?>
<!-- Generator: Adobe Illustrator 23.0.6, SVG Export Plug-In . SVG Version: 6.00 Build 0)  -->
<svg version="1.1" id="Layer_1" xmlns="http://www.w3.org/2000/svg" xmlns:xlink="http://www.w3.org/1999/xlink" x="0px" y="0px"
	 viewBox="0 0 32 32" style="enable-background:new 0 0 32 32;" xml:space="preserve">
<style type="text/css">
	.st0{fill:#0083DF;}
</style>
<path class="st0" d="M27,30H5c-1.7,0-3-1.3-3-3V5c0-1.7,1.3-3,3-3h22c1.7,0,3,1.3,3,3v22C30,28.7,28.7,30,27,30z"/>
<g>
	<g>
		<path d="M8,4.1h1.7h0c0.9,0,1.7,0.8,1.7,1.7l0,13.9c0,3.7,1.5,5.5,4.5,5.5s4.2-1.8,4.2-5.5v-7.4c0,0,0,0,0,0
			c0-0.9,0.7-1.6,1.6-1.6l2.4,0c0,1.5,0,0.8,0,1.7L24,20c0,1.6-0.3,3-1,4.2c-0.7,1.2-1.6,2.2-2.8,2.8c-1.2,0.7-2.6,1-4.3,1
			c-2.5,0-4.4-0.7-5.9-2.2c-1.3-1.4-2-3.3-2-5.8C8,20,8,8,8,4.1"/>
	</g>
</g>
<circle cx="22.1" cy="6" r="2"/>
</svg>
