<?xml version="1.0" encoding="utf-8"?>
<!-- Generator: Adobe Illustrator 23.0.6, SVG Export Plug-In . SVG Version: 6.00 Build 0)  -->
<svg version="1.1" id="Layer_1" xmlns="http://www.w3.org/2000/svg" xmlns:xlink="http://www.w3.org/1999/xlink" x="0px" y="0px"
	 viewBox="0 0 32 32" style="enable-background:new 0 0 32 32;" xml:space="preserve">
<style type="text/css">
	.st0{fill:#0083DF;}
</style>
<path class="st0" d="M27,30H5c-1.7,0-3-1.3-3-3V5c0-1.7,1.3-3,3-3h22c1.7,0,3,1.3,3,3v22C30,28.7,28.7,30,27,30z"/>
<path d="M10.5,27L10.5,27c-2.8,0-5-2.2-5-5V5h0c2.8,0,5,2.2,5,5V27z"/>
<path d="M21.5,27L21.5,27l0-10c0-2.8,2.2-5,5-5h0v10C26.5,24.8,24.3,27,21.5,27z"/>
<circle cx="24" cy="7.5" r="2.5"/>
<path d="M21,25v2H11v-2c0-0.6,0.4-1,1-1h8C20.6,24,21,24.4,21,25z"/>
</svg>
